<?xml version="1.0" encoding="utf-8"?>
<!-- Generator: Adobe Illustrator 28.3.0, SVG Export Plug-In . SVG Version: 6.00 Build 0)  -->
<svg version="1.1" id="Layer_1" xmlns="http://www.w3.org/2000/svg" xmlns:xlink="http://www.w3.org/1999/xlink" x="0px" y="0px"
	 viewBox="0 0 256 256" style="enable-background:new 0 0 256 256;" xml:space="preserve">
<style type="text/css">
	.st0{fill:#3E90DB;}
</style>
<g transform="translate(1.4065934065934016 1.4065934065934016) scale(2.81 2.81)">
	<path class="st0" d="M57.2,65.6c-7.3,0-14.6-2.8-20.2-8.3C25.9,46.1,25.9,28,37,16.9c11.1-11.1,29.2-11.1,40.4,0
		c11.1,11.1,11.1,29.2,0,40.4C71.8,62.8,64.5,65.6,57.2,65.6z M57.2,14.5c-5.8,0-11.5,2.2-15.9,6.6c-8.8,8.8-8.8,23.1,0,31.9
		c8.8,8.8,23.1,8.8,31.9,0c8.8-8.8,8.8-23.1,0-31.9C68.7,16.7,63,14.5,57.2,14.5z"/>
	<path class="st0" d="M13.1,90c-2.3,0-4.5-0.9-6.3-2.6c-1.7-1.7-2.6-3.9-2.6-6.3c0-2.4,0.9-4.6,2.6-6.3l26.5-26.5
		c1.2-1.2,3.1-1.2,4.2,0c1.2,1.2,1.2,3.1,0,4.2L11.1,79.2c-0.5,0.5-0.8,1.3-0.8,2s0.3,1.5,0.8,2c1.1,1.1,2.9,1.1,4,0l26.5-26.5
		c1.2-1.2,3.1-1.2,4.2,0c1.2,1.2,1.2,3.1,0,4.2L19.4,87.4C17.6,89.1,15.4,90,13.1,90z"/>
	<path class="st0" d="M65,28.2c-0.6,0-1.1-0.2-1.7-0.5c-3.2-2.1-7.3-2.5-10.8-0.9c-1.5,0.7-3.3,0-4-1.5c-0.7-1.5,0-3.3,1.5-4
		c5.4-2.4,11.6-1.9,16.6,1.4c1.4,0.9,1.8,2.8,0.8,4.2C67,27.8,66,28.2,65,28.2z"/>
	<path class="st0" d="M57.1,54.3c-2.4,0-4.8-0.5-7-1.5c-1.5-0.7-2.2-2.4-1.5-4c0.7-1.5,2.4-2.2,4-1.5c2.9,1.3,6.2,1.3,9.1,0
		c4.4-1.9,7-6.4,6.6-11.2c-0.1-1.7,1.1-3.1,2.7-3.2c1.6-0.1,3.1,1.1,3.2,2.7c0.6,7.3-3.5,14.2-10.2,17.2
		C61.9,53.8,59.5,54.3,57.1,54.3z"/>
	<path class="st0" d="M13.6,60.7H7.3c-1.7,0-3-1.3-3-3s1.3-3,3-3h6.3c1.7,0,3,1.3,3,3S15.3,60.7,13.6,60.7z"/>
	<path class="st0" d="M21.6,42.5H7.3c-1.7,0-3-1.3-3-3s1.3-3,3-3h14.3c1.7,0,3,1.3,3,3S23.2,42.5,21.6,42.5z"/>
	<path class="st0" d="M23.1,24.2H7.3c-1.7,0-3-1.3-3-3s1.3-3,3-3h15.8c1.7,0,3,1.3,3,3S24.7,24.2,23.1,24.2z"/>
	<path class="st0" d="M82.7,6H7.3c-1.7,0-3-1.3-3-3s1.3-3,3-3h75.5c1.7,0,3,1.3,3,3S84.4,6,82.7,6z"/>
</g>
</svg>
