<?xml version="1.0" encoding="UTF-8"?>
<svg id="Layer_1" data-name="Layer 1" xmlns="http://www.w3.org/2000/svg" viewBox="0 0 176.56 252.9">
  <defs>
    <style>
      .cls-1 {
        fill: #3e90db;
      }

      .cls-1, .cls-2 {
        stroke-width: 0px;
      }

      .cls-2 {
        fill: #fff;
      }
    </style>
  </defs>
  <path class="cls-1" d="M88.28,252.9c-3.98,0-7.66-2.1-9.68-5.52l-12.32-20.84c-25.3-42.77-49.19-83.17-57.36-99.55C2.99,114.81,0,101.82,0,88.28,0,39.6,39.6,0,88.28,0s88.28,39.6,88.28,88.28c0,13.53-2.99,26.52-8.87,38.61-.07.15-.15.29-.22.44-8.32,16.6-32.06,56.74-57.19,99.22l-12.31,20.83c-2.02,3.42-5.7,5.52-9.68,5.52Z"/>
  <path class="cls-2" d="M88.28,128.36c-23.81,0-43.19-19.37-43.19-43.18s19.37-43.19,43.19-43.19,43.18,19.37,43.18,43.19-19.37,43.18-43.18,43.18Z"/>
</svg>