<?xml version="1.0" encoding="UTF-8"?>
<svg id="Layer_1" data-name="Layer 1" xmlns="http://www.w3.org/2000/svg" viewBox="0 0 252.9 252.9">
  <defs>
    <style>
      .cls-1 {
        fill: #3e90db;
        stroke-width: 0px;
      }
    </style>
  </defs>
  <path class="cls-1" d="M126.45,0C56.61,0,0,56.61,0,126.45s56.61,126.45,126.45,126.45,126.45-56.61,126.45-126.45S196.29,0,126.45,0ZM186.5,188.29c-1.92-.84-3.73-1.82-5.47-2.77l-.8-.49-22.06-22.06c-.52-.52-1.05-1.04-1.57-1.57-.93-.94-1.87-1.88-2.82-2.8l-2.02-2.05-32.76,32.76-2.39-2.4c-12.8-12.8-17.58-32.21-12.3-49.67l-8.94-8.94c-10.97,1.08-22.04-2.83-29.75-10.54l-2.4-2.39,52.16-52.16,2.39,2.4c7.71,7.71,11.62,18.78,10.54,29.75l8.94,8.94c17.46-5.28,36.87-.49,49.67,12.31l2.39,2.39-32.76,32.76,2.05,2.02c.92.96,1.86,1.9,2.8,2.84.53.52,1.05,1.05,1.57,1.57l22.27,22.35.26.48c.95,1.74,1.92,3.54,2.77,5.47l1.39,3.18-3.18-1.39Z"/>
</svg>