<?xml version="1.0" encoding="UTF-8"?>
<svg id="Layer_1" data-name="Layer 1" xmlns="http://www.w3.org/2000/svg" viewBox="0 0 252.9 252.9">
  <defs>
    <style>
      .cls-1 {
        fill: #fff;
        stroke-width: 0px;
      }
    </style>
  </defs>
  <path class="cls-1" d="M248.78,228.92l-63.76-63.76c30.6-40.33,27.54-98.22-9.24-135C156.34,10.71,130.48,0,102.98,0S49.61,10.71,30.16,30.16C10.71,49.61,0,75.47,0,102.98s10.71,53.36,30.16,72.81c20.07,20.08,46.44,30.11,72.82,30.11,21.94,0,43.87-6.97,62.19-20.88l63.76,63.76c2.74,2.75,6.34,4.12,9.93,4.12s7.19-1.37,9.93-4.12c5.49-5.49,5.49-14.38,0-19.87ZM50.03,155.92c-14.15-14.14-21.93-32.94-21.93-52.95s7.79-38.8,21.93-52.95c14.14-14.14,32.94-21.93,52.94-21.93s38.8,7.79,52.95,21.93c29.19,29.19,29.19,76.7,0,105.89-29.2,29.19-76.7,29.19-105.89,0Z"/>
</svg>