<?xml version="1.0" encoding="UTF-8"?>
<svg id="Layer_1" data-name="Layer 1" xmlns="http://www.w3.org/2000/svg" viewBox="0 0 252.9 252.9">
  <defs>
    <style>
      .cls-1 {
        fill: #3e90db;
        stroke-width: 0px;
      }
    </style>
  </defs>
  <path class="cls-1" d="M126.45,252.9C56.73,252.9,0,196.17,0,126.45S56.73,0,126.45,0s126.45,56.73,126.45,126.45-56.73,126.45-126.45,126.45ZM126.45,25.29c-55.78,0-101.16,45.38-101.16,101.16s45.38,101.16,101.16,101.16,101.16-45.38,101.16-101.16S182.23,25.29,126.45,25.29Z"/>
  <path class="cls-1" d="M185.66,113.8h-46.56v-46.56c0-6.98-5.66-12.64-12.64-12.64s-12.64,5.66-12.64,12.64v59.21c0,6.98,5.66,12.64,12.64,12.64h59.21c6.98,0,12.64-5.66,12.64-12.64s-5.66-12.64-12.64-12.64Z"/>
</svg>